<svg width="40" height="40" viewBox="5 5 36 36">

  <defs>
    <rect id="prefix__a" x={0} y={0} width={40} height={40} rx={2} />
  </defs>
  <g fill="none" fillRule="evenodd">
    <g transform="translate(3 3)">
      <use fillOpacity={0.08} fill="#000" xlinkHref="#prefix__a" />
      <use xlinkHref="#prefix__a" />
      <use xlinkHref="#prefix__a" />
      <use xlinkHref="#prefix__a" />
    </g>
    <path
      d="M23.001 24.71v-3.348h8.424c.126.567.225 1.098.225 1.845 0 5.139-3.447 8.793-8.64 8.793-4.968 0-9-4.032-9-9s4.032-9 9-9c2.43 0 4.464.891 6.021 2.349l-2.556 2.484c-.648-.612-1.782-1.332-3.465-1.332-2.979 0-5.409 2.475-5.409 5.508s2.43 5.508 5.409 5.508c3.447 0 4.716-2.385 4.95-3.798h-4.959v-.009z"
      fillOpacity={0.4}
      fill="#000"
    />
  </g>
</svg>
