<svg xmlns="http://www.w3.org/2000/svg" viewBox="0 0 100 125">
  <path d="M61 21H33c0 .7.1 1.4.2 2h27.9c-.1-.6-.1-1.3-.1-2z"/>
  <path d="M34 14c1.2 0 2.4 2 2.9 5h2c-.5-4.1-2.4-7-4.9-7-2.9 0-5 3.9-5 9 0 .7 0 1.4.1 2 .5 4.1 2.4 7 4.9 7v-2c-1.2 0-2.4-2-2.9-5-.1-.6-.1-1.3-.1-2 0-4 1.6-7 3-7zM68 14c1.2 0 2.4 2 2.9 5h2c-.5-4.1-2.4-7-4.9-7-2.9 0-5 3.9-5 9 0 .7 0 1.4.1 2 .5 4.1 2.4 7 4.9 7v-2c-1.2 0-2.4-2-2.9-5-.1-.6-.1-1.3-.1-2 0-4 1.6-7 3-7z"/>
  <circle cx="39" cy="50" r="3"/>
  <circle cx="61" cy="50" r="3"/>
  <circle cx="72" cy="50" r="3"/>
  <circle cx="50" cy="50" r="3"/>
  <circle cx="28" cy="61" r="3"/>
  <circle cx="39" cy="61" r="3"/>
  <circle cx="50" cy="61" r="3"/>
  <circle cx="28" cy="72" r="3"/>
  <circle cx="39" cy="72" r="3"/>
  <circle cx="50" cy="72" r="3"/>
  <path d="M19 86h39.5c-.5-.6-.9-1.3-1.3-2H19c-1.1 0-2-.9-2-2V38h66v20.3c.7.4 1.4.8 2 1.3V25c0-2.2-1.8-4-4-4H67c0 .7.1 1.4.2 2H81c1.1 0 2 .9 2 2v11H17V25c0-1.1.9-2 2-2h8.1c-.1-.6-.1-1.3-.1-2h-8c-2.2 0-4 1.8-4 4v57c0 2.2 1.8 4 4 4z"/>
  <path d="M83 63c-2.5-1.9-5.6-3-9-3-8.3 0-15 6.7-15 15 0 3.4 1.1 6.5 3 9 .5.7 1.1 1.4 1.8 2 2.7 2.5 6.2 4 10.2 4 8.3 0 15-6.7 15-15 0-3.9-1.5-7.5-4-10.2-.6-.6-1.3-1.2-2-1.8zm2 18.9c-1 1.7-2.4 3.1-4.1 4.1-2 1.3-4.4 2-6.9 2s-4.9-.7-6.9-2c-.9-.6-1.7-1.2-2.5-2-2.2-2.3-3.6-5.5-3.6-9 0-7.2 5.8-13 13-13 3.5 0 6.7 1.4 9 3.6.8.7 1.4 1.6 2 2.5 1.3 2 2 4.4 2 6.9s-.7 4.9-2 6.9z"/>
  <path d="M78.3 69.3L74 73.6l-4.3-4.3-1.4 1.4 4.3 4.3-4.3 4.3 1.4 1.4 4.3-4.3 4.3 4.3 1.4-1.4-4.3-4.3 4.3-4.3z"/>
</svg>
