<svg xmlns="http://www.w3.org/2000/svg" viewBox="0 0 100 125">
  <path d="M27.917 72.167L28 85.018c.001.168.029.33.07.485-.041.16-.07.325-.07.497a2 2 0 0 0 2 2h41a2 2 0 0 0 2-2c0-.203-.039-.396-.096-.581.027-.13.043-.266.044-.404l.083-12.863c0-9.833-5.734-17.378-16.644-22.063 11.049-4.598 16.644-11.965 16.644-21.948L73 15.026l-.001-.013L73 15a2 2 0 0 0-2-2H30l-.024.002-.023-.002h-.005c-1.103 0-1.998.923-2 2.026l-.031 13.134c0 9.979 5.594 17.339 16.643 21.936-10.909 4.685-16.643 12.228-16.643 22.071zm4-44.017L31.943 17h37.062l.026 11.16c0 9.483-6.075 15.96-18.547 19.802-12.486-3.841-18.567-10.329-18.567-19.812zm18.546 24.017c12.311 3.895 18.568 10.61 18.568 19.975L68.955 84H31.994l-.077-11.848c0-9.371 6.25-16.09 18.546-19.985zM77 5H24a2 2 0 0 0 0 4h53a2 2 0 0 0 0-4zM22 94a2 2 0 0 0 2 2h53a2 2 0 0 0 0-4H24a2 2 0 0 0-2 2z"/>
</svg>
