<svg xmlns="http://www.w3.org/2000/svg" xmlns:xlink="http://www.w3.org/1999/xlink" version="1.1" x="0px" y="0px" viewBox="0 0 100 125" enable-background="new 0 0 100 100" xml:space="preserve"><path d="M84.544,37.317c-6.445,0-11.771,4.838-12.566,11.071h-3.205c-0.776-9.111-8.05-16.386-17.161-17.162v-3.204  c6.232-0.796,11.07-6.121,11.07-12.566c0-6.993-5.689-12.683-12.682-12.683c-6.993,0-12.683,5.689-12.683,12.683  c0,6.445,4.838,11.771,11.071,12.566v3.204c-9.111,0.776-16.385,8.051-17.161,17.162h-3.205  c-0.796-6.233-6.122-11.071-12.567-11.071C8.463,37.317,2.773,43.007,2.773,50s5.689,12.683,12.682,12.683  c6.445,0,11.771-4.838,12.567-11.071h3.205c0.776,9.111,8.05,16.386,17.161,17.162v3.204c-6.233,0.796-11.071,6.121-11.071,12.566  c0,6.993,5.689,12.683,12.683,12.683c6.992,0,12.682-5.689,12.682-12.683c0-6.445-4.838-11.771-11.07-12.566v-3.204  c9.111-0.776,16.385-8.051,17.161-17.162h3.205c0.796,6.233,6.121,11.071,12.566,11.071c6.993,0,12.683-5.689,12.683-12.683  S91.537,37.317,84.544,37.317z M40.54,15.456c0-5.217,4.243-9.46,9.46-9.46c5.216,0,9.459,4.243,9.459,9.46  c0,5.216-4.243,9.458-9.459,9.458C44.783,24.914,40.54,20.672,40.54,15.456z M15.455,59.46c-5.216,0-9.459-4.243-9.459-9.46  s4.243-9.46,9.459-9.46s9.459,4.243,9.459,9.46S20.671,59.46,15.455,59.46z M59.459,84.544c0,5.217-4.243,9.46-9.459,9.46  c-5.217,0-9.46-4.243-9.46-9.46c0-5.216,4.243-9.458,9.46-9.458C55.216,75.086,59.459,79.328,59.459,84.544z M50,65.836  c-8.731,0-15.835-7.104-15.835-15.836S41.269,34.164,50,34.164S65.835,41.268,65.835,50S58.731,65.836,50,65.836z M84.544,59.46  c-5.216,0-9.458-4.243-9.458-9.46s4.242-9.46,9.458-9.46c5.217,0,9.46,4.243,9.46,9.46S89.761,59.46,84.544,59.46z"/></svg>
