<svg xmlns="http://www.w3.org/2000/svg" data-name="Layer 43" viewBox="0 0 512 640">
  <path d="M62.88 181.91h68.82a13.11 13.11 0 0 0 13.1-13.09V100a13.11 13.11 0 0 0-13.1-13.1H62.88A13.1 13.1 0 0 0 49.79 100v68.83a13.1 13.1 0 0 0 13.09 13.08zM59.2 100a3.68 3.68 0 0 1 3.68-3.67h68.82a3.68 3.68 0 0 1 3.68 3.67v68.83a3.67 3.67 0 0 1-3.68 3.67H62.88a3.67 3.67 0 0 1-3.68-3.67zM62.88 303.51h68.82a13.12 13.12 0 0 0 13.1-13.1v-68.82a13.12 13.12 0 0 0-13.1-13.1H62.88a13.11 13.11 0 0 0-13.09 13.1v68.82a13.11 13.11 0 0 0 13.09 13.1zm-3.68-81.92a3.68 3.68 0 0 1 3.68-3.68h68.82a3.68 3.68 0 0 1 3.68 3.68v68.82a3.68 3.68 0 0 1-3.68 3.68H62.88a3.68 3.68 0 0 1-3.68-3.68zM62.88 425.1h68.82a13.11 13.11 0 0 0 13.1-13.1v-68.82a13.11 13.11 0 0 0-13.1-13.09H62.88a13.1 13.1 0 0 0-13.09 13.09V412a13.1 13.1 0 0 0 13.09 13.1zm-3.68-81.92a3.68 3.68 0 0 1 3.68-3.68h68.82a3.68 3.68 0 0 1 3.68 3.68V412a3.68 3.68 0 0 1-3.68 3.68H62.88A3.68 3.68 0 0 1 59.2 412zM184.31 181.91h265a12.94 12.94 0 0 0 12.9-12.91V99.83a12.94 12.94 0 0 0-12.93-12.93h-265a12.94 12.94 0 0 0-12.93 12.93V169a12.94 12.94 0 0 0 12.96 12.91zm-3.51-82.08a3.51 3.51 0 0 1 3.51-3.51h265a3.52 3.52 0 0 1 3.52 3.51V169a3.52 3.52 0 0 1-3.52 3.51h-265a3.51 3.51 0 0 1-3.51-3.51zM184.31 303.51h180.34a4.71 4.71 0 0 0 4.71-4.71v-.32a4.7 4.7 0 0 0-4.68-4.39H184.31a3.51 3.51 0 0 1-3.51-3.51v-69.16a3.51 3.51 0 0 1 3.51-3.51h265a3.52 3.52 0 0 1 3.52 3.51v71.32a4.69 4.69 0 0 0 9.38-.32v-71a12.94 12.94 0 0 0-12.93-12.93h-265a12.94 12.94 0 0 0-12.93 12.93v69.16a12.94 12.94 0 0 0 12.96 12.93zM184.31 425.1h265a12.94 12.94 0 0 0 12.93-12.93V343a12.94 12.94 0 0 0-12.93-12.93h-265A12.94 12.94 0 0 0 171.38 343v69.15a12.94 12.94 0 0 0 12.93 12.95zM180.8 343a3.52 3.52 0 0 1 3.51-3.52h265a3.53 3.53 0 0 1 3.49 3.52v69.15a3.52 3.52 0 0 1-3.52 3.51h-265a3.51 3.51 0 0 1-3.51-3.51z"/>
  <path d="M97.29 153.47a4.71 4.71 0 0 0 4.71-4.71v-28.71a4.71 4.71 0 0 0-9.42 0v28.71a4.71 4.71 0 0 0 4.71 4.71zM87.88 275.07a4.71 4.71 0 0 0 4.71-4.71v-28.72a4.71 4.71 0 0 0-9.42 0v28.72a4.71 4.71 0 0 0 4.71 4.71zM106.71 275.07a4.7 4.7 0 0 0 4.7-4.71v-28.72a4.71 4.71 0 1 0-9.41 0v28.72a4.71 4.71 0 0 0 4.71 4.71zM78.47 396.66a4.7 4.7 0 0 0 4.7-4.71v-28.71a4.71 4.71 0 1 0-9.41 0V392a4.71 4.71 0 0 0 4.71 4.66zM97.29 396.66A4.71 4.71 0 0 0 102 392v-28.76a4.71 4.71 0 1 0-9.42 0V392a4.71 4.71 0 0 0 4.71 4.66zM116.12 396.66a4.71 4.71 0 0 0 4.71-4.71v-28.71a4.71 4.71 0 1 0-9.42 0V392a4.71 4.71 0 0 0 4.71 4.66zM213.89 127.19h151.05a4.71 4.71 0 0 0 0-9.42h-151a4.71 4.71 0 1 0 0 9.42zM390.49 127.19h42a4.71 4.71 0 1 0 0-9.42h-42a4.71 4.71 0 0 0 0 9.42zM213.89 153.47h118.5a4.71 4.71 0 1 0 0-9.42h-118.5a4.71 4.71 0 1 0 0 9.42zM369.65 242.86a4.71 4.71 0 0 0-4.71-4.71h-151a4.71 4.71 0 0 0 0 9.42h151a4.71 4.71 0 0 0 4.71-4.71zM432.51 238.15h-42a4.71 4.71 0 0 0 0 9.42h42a4.71 4.71 0 1 0 0-9.42zM213.89 264.43a4.71 4.71 0 1 0 0 9.42h118.5a4.71 4.71 0 1 0 0-9.42zM213.89 369.16h151.05a4.71 4.71 0 0 0 0-9.42h-151a4.71 4.71 0 1 0 0 9.42zM390.49 369.16h42a4.71 4.71 0 1 0 0-9.42h-42a4.71 4.71 0 0 0 0 9.42zM213.89 395.44h118.5a4.71 4.71 0 1 0 0-9.41h-118.5a4.71 4.71 0 1 0 0 9.41zM436.58 293.89a5.31 5.31 0 0 0 .17-1.32 5.66 5.66 0 0 0-2.42-4.71L388.56 256a5.67 5.67 0 0 0-8.78 5.86l7.75 35.42 4.18 19.08a5.65 5.65 0 0 0 3.42 4.05 5.79 5.79 0 0 0 2.12.41 5.68 5.68 0 0 0 3.15-.95l13-8.69 5.83 8.73a4.71 4.71 0 0 0 7.83-5.23l-5.83-8.73 13-8.69a5.66 5.66 0 0 0 2.35-3.37zM420.65 295l-4.65 3.08-3.91 2.61-3.92 2.62-8.43 5.63-2.74-12.35-6-27.43 33.42 23.29z"/>
</svg>
